<svg xmlns="http://www.w3.org/2000/svg" version="1.1" xmlns:xlink="http://www.w3.org/1999/xlink" xmlns:svgjs="http://svgjs.dev/svgjs" width="128" height="128" viewBox="0 0 128 128"><g transform="matrix(0.8046875,0,0,0.8046875,12.760752631578946,39.99751935793903)"><svg viewBox="0 0 95 44" data-background-color="#21232b" preserveAspectRatio="xMidYMid meet" height="59" width="128" xmlns="http://www.w3.org/2000/svg" xmlns:xlink="http://www.w3.org/1999/xlink"><g id="tight-bounds" transform="matrix(1,0,0,1,-0.24049999999999727,0.24485288400319405)"><svg viewBox="0 0 95.481 43.51029423199361" height="43.51029423199361" width="95.481"><g><svg viewBox="0 0 95.481 43.51029423199361" height="43.51029423199361" width="95.481"><g><svg viewBox="0 0 95.481 43.51029423199361" height="43.51029423199361" width="95.481"><g id="textblocktransform"><svg viewBox="0 0 95.481 43.51029423199361" height="43.51029423199361" width="95.481" id="textblock"><g><svg viewBox="0 0 95.481 43.51029423199361" height="43.51029423199361" width="95.481"><g><svg viewBox="0 0 95.481 43.51029423199361" height="43.51029423199361" width="95.481"><g><svg xmlns="http://www.w3.org/2000/svg" xmlns:xlink="http://www.w3.org/1999/xlink" version="1.1" x="0" y="0" viewBox="5 29.49387475885969 90 41.012625348283166" enable-background="new 0 0 100 100" xml:space="preserve" height="43.51029423199361" width="95.481" class="icon-icon-0" data-fill-palette-color="accent" id="icon-0"><g fill="#2f84ff" data-fill-palette-color="accent"><path d="M23.943 30.807L5 50.001l18.942 19.192c1.728 1.751 4.53 1.751 6.258 0.002 1.729-1.75 1.73-4.587 0.002-6.338L18.193 50.695l-3.624 2.289 15.634-15.841c0.864-0.875 1.295-2.021 1.295-3.168 0-1.147-0.433-2.295-1.297-3.17C28.473 29.056 25.671 29.057 23.943 30.807z" fill="#2f84ff" data-fill-palette-color="accent"></path><path d="M76.057 30.808L95 50.001 76.058 69.193c-1.728 1.751-4.53 1.751-6.258 0.002-1.729-1.75-1.73-4.587-0.002-6.338l12.009-12.161 3.624 2.289L69.796 37.144c-0.864-0.875-1.295-2.021-1.295-3.168 0-1.147 0.433-2.295 1.297-3.17C71.527 29.056 74.329 29.057 76.057 30.808z" fill="#2f84ff" data-fill-palette-color="accent"></path><path d="M60.899 32.352c-0.419-1.068-1.241-1.978-2.366-2.476-2.249-0.997-4.857 0.028-5.825 2.288l-13.82 32.062c-0.484 1.13-0.467 2.355-0.048 3.422 0.419 1.068 1.241 1.978 2.366 2.476 2.249 0.997 4.857-0.028 5.825-2.288l13.82-32.062C61.335 34.644 61.318 33.419 60.899 32.352z" fill="#2f84ff" data-fill-palette-color="accent"></path></g></svg></g></svg></g></svg></g></svg></g></svg></g></svg></g><defs></defs></svg><rect width="95.481" height="43.51029423199361" fill="none" stroke="none" visibility="hidden"></rect></g></svg></g></svg>