<svg xmlns="http://www.w3.org/2000/svg" version="1.1" xmlns:xlink="http://www.w3.org/1999/xlink" xmlns:svgjs="http://svgjs.dev/svgjs" width="1500" height="156" viewBox="0 0 1500 156"><g transform="matrix(1,0,0,1,0.571055733444382,0.7160331176470578)"><svg viewBox="0 0 326 34" data-background-color="#21232b" preserveAspectRatio="xMidYMid meet" height="156" width="1500" xmlns="http://www.w3.org/2000/svg" xmlns:xlink="http://www.w3.org/1999/xlink"><g id="tight-bounds" transform="matrix(1,0,0,1,-0.1241094460685872,-0.15605850000000032)"><svg viewBox="0 0 326.2482188921372 34.312117" height="34.312117" width="326.2482188921372"><g><svg viewBox="0 0 326.2482188921372 34.312117" height="34.312117" width="326.2482188921372"><g><svg viewBox="0 0 326.2482188921372 34.312117" height="34.312117" width="326.2482188921372"><g id="textblocktransform"><svg viewBox="0 0 326.2482188921372 34.312117" height="34.312117" width="326.2482188921372" id="textblock"><g><svg viewBox="0 0 326.2482188921372 34.312117" height="34.312117" width="326.2482188921372"><g><svg><g></g><g></g></svg></g><g><svg><g></g><g><svg></svg></g></svg></g><g id="text-0"><svg viewBox="0 0 326.2482188921372 34.312117" height="34.312117" width="326.2482188921372"><g><svg xmlns="http://www.w3.org/2000/svg" xmlns:xlink="http://www.w3.org/1999/xlink" version="1.1" x="0" y="0" viewBox="5 29.49387475885969 90 41.012625348283166" enable-background="new 0 0 100 100" xml:space="preserve" height="34.312117" width="75.29609489213718" class="icon-cg-0" data-fill-palette-color="accent" id="cg-0"><g fill="#2f84ff" data-fill-palette-color="accent"><path d="M23.943 30.807L5 50.001l18.942 19.192c1.728 1.751 4.53 1.751 6.258 0.002 1.729-1.75 1.73-4.587 0.002-6.338L18.193 50.695l-3.624 2.289 15.634-15.841c0.864-0.875 1.295-2.021 1.295-3.168 0-1.147-0.433-2.295-1.297-3.17C28.473 29.056 25.671 29.057 23.943 30.807z" fill="#2f84ff" data-fill-palette-color="accent"></path><path d="M76.057 30.808L95 50.001 76.058 69.193c-1.728 1.751-4.53 1.751-6.258 0.002-1.729-1.75-1.73-4.587-0.002-6.338l12.009-12.161 3.624 2.289L69.796 37.144c-0.864-0.875-1.295-2.021-1.295-3.168 0-1.147 0.433-2.295 1.297-3.17C71.527 29.056 74.329 29.057 76.057 30.808z" fill="#2f84ff" data-fill-palette-color="accent"></path><path d="M60.899 32.352c-0.419-1.068-1.241-1.978-2.366-2.476-2.249-0.997-4.857 0.028-5.825 2.288l-13.82 32.062c-0.484 1.13-0.467 2.355-0.048 3.422 0.419 1.068 1.241 1.978 2.366 2.476 2.249 0.997 4.857-0.028 5.825-2.288l13.82-32.062C61.335 34.644 61.318 33.419 60.899 32.352z" fill="#2f84ff" data-fill-palette-color="accent"></path></g></svg></g><g transform="matrix(1,0,0,1,85.05619489213717,0)"><svg width="241.19202400000003" viewBox="3.1 -25.1 179.58 25.55" height="34.312117" data-palette-color="#0f172a"><g class="wordmark-text-0" data-fill-palette-color="primary"><path d="M28.45-24.9L31 0 27.65 0 27.1-7.6 25.75-19.1 25.45-19.1 18.3-2.8 15.35-2.8 8.6-19.1 8.3-19.1 7-7.9 6.3 0 3.1 0 5.85-24.9 10.2-24.9 11.45-21.15 16.9-7.75 17.2-7.75 22.9-21.35 24.2-24.9 28.45-24.9ZM49.3-24.9L58.05 0 54.3 0 53.7-2.7 52.4-6.4 46.45-6.45 41.15-6.4 39.8-2.9 39.1 0 35.4 0 45-24.9 49.3-24.9ZM46.75-9.4L51.35-9.45 47.2-21.25 46.9-21.25 42.35-9.45 46.75-9.4ZM68-24.9L67.84-7.8 67.95 0 64.25 0 64.4-7.5 64.25-24.9 68-24.9ZM95.89-24.95L85.29-13.25Q90.59-6.75 96.54-0.85L96.54-0.85 96.44-0.3Q94.89 0.2 92.84 0.45L92.84 0.45 92.24 0.2Q85.84-7 81.19-13L81.19-13 81.19-13.3 89.79-22.7 91.44-24.9 95.89-24.95ZM80.94-24.9L80.79-7.8 80.89 0 77.19 0 77.34-7.5 77.19-24.9 80.94-24.9ZM102.99-4.4Q103.99-4.4 104.59-3.8 105.19-3.2 105.19-2.15L105.19-2.15Q105.19-1.05 104.57-0.4 103.94 0.25 102.84 0.25L102.84 0.25Q101.79 0.25 101.22-0.35 100.64-0.95 100.64-2.05L100.64-2.05Q100.64-3.1 101.27-3.75 101.89-4.4 102.99-4.4L102.99-4.4ZM122.89-25.1Q128.59-25.1 131.61-22.05 134.64-19 134.64-13.3L134.64-13.3Q134.64-6.75 131.34-3.25 128.04 0.25 121.89 0.25L121.89 0.25Q120.14 0.25 117.71 0.18 115.29 0.1 113.14 0L113.14 0 113.29-7.5 113.14-24.9 122.89-25.1ZM122.49-2.8Q126.49-2.8 128.66-5.23 130.84-7.65 130.84-12.55L130.84-12.55Q130.84-17.35 128.79-19.65 126.74-21.95 122.59-21.95L122.59-21.95Q120.14-21.95 116.84-21.75L116.84-21.75 116.74-7.8 116.79-3.1Q118.24-3 119.84-2.9 121.44-2.8 122.49-2.8L122.49-2.8ZM149.99-3L156.64-3.2 156.94-2.9 156.59 0 141.44 0 141.59-7.5 141.44-24.9 156.69-24.9 156.94-24.6 156.64-21.7 150.34-21.9 145.14-21.85 145.09-14.3 150.04-14.25 154.39-14.4 154.64-14.05 154.34-11.1 149.74-11.25 145.09-11.2 145.04-7.8 145.09-3.05 149.99-3ZM182.68-24.9L173.18 0 168.73 0 160.03-24.9 163.88-24.9 164.48-22.15 170.93-3.7 171.18-3.7 178.33-22 178.93-24.9 182.68-24.9Z" fill="#0f172a" data-fill-palette-color="primary"></path></g></svg></g></svg></g></svg></g></svg></g></svg></g></svg></g><defs></defs></svg><rect width="326.2482188921372" height="34.312117" fill="none" stroke="none" visibility="hidden"></rect></g></svg></g></svg>