<svg width="800" height="400" viewBox="0 0 800 400" xmlns="http://www.w3.org/2000/svg"><defs><pattern id="satori_pattern_id_0" x="0" y="0" width="1" height="1" patternUnits="objectBoundingBox"><linearGradient id="satori_biid_0" x1="1.1695749089520417" y1="0.2726908684151359" x2="0" y2="0"><stop offset="0%" stop-color="rgba(15,23,42,1)"/><stop offset="28.000000000000004%" stop-color="rgba(15,23,42,1)"/><stop offset="100%" stop-color="rgba(20,15,42,1)"/></linearGradient><rect x="0" y="0" width="800" height="400" fill="url(#satori_biid_0)"/></pattern></defs><mask id="satori_om-id"><rect x="0" y="0" width="800" height="400" fill="#fff"/></mask><rect x="0" y="0" width="800" height="400" fill="url(#satori_pattern_id_0)"/><mask id="satori_om-id-0"><rect x="0" y="125" width="497" height="150" fill="#fff"/></mask><mask id="satori_om-id-0-0"><rect x="60" y="157" width="437" height="34" fill="#fff"/></mask><mask id="satori_om-id-0-0-0"><rect x="60" y="155" width="49" height="36" fill="#fff"/></mask><path fill="#2F84FF" d="M76.5 181.0L62.5 174.8L62.5 171.3L76.5 165.1L76.5 169.2L66.9 173.0L67.1 172.8L67.1 173.3L66.9 173.1L76.5 177.0L76.5 181.0ZM85.9 159.9L89.6 159.9L83.0 184.3L79.4 184.3L85.9 159.9ZM106.5 171.3L106.5 174.8L92.5 181.0L92.5 177.0L102.0 173.1L101.9 173.3L101.9 172.8L102.0 173.0L92.5 169.2L92.5 165.1L106.5 171.3Z "/><mask id="satori_om-id-0-0-1"><rect x="113" y="157" width="141" height="34" fill="#fff"/></mask><path fill="#fff" d="M114.8 183.2L114.8 162.8L120.1 162.8L125.7 176.5L125.9 176.5L131.5 162.8L136.8 162.8L136.8 183.2L132.7 183.2L132.7 170.0L132.5 170.0L127.2 183.1L124.4 183.1L119.1 169.9L118.9 169.9L118.9 183.2L114.8 183.2ZM149.0 167.5L143.9 183.2L139.3 183.2L146.3 162.8L151.9 162.8L158.9 183.2L154.3 183.2L149.2 167.5L149.0 167.5ZM143.6 178.6L143.6 175.2L154.5 175.2L154.5 178.6L143.6 178.6ZM161.3 162.8L165.6 162.8L165.6 183.2L161.3 183.2L161.3 162.8ZM173.5 183.2L169.2 183.2L169.2 162.8L173.5 162.8L173.5 171.8L173.8 171.8L181.1 162.8L186.2 162.8L178.7 172.0L186.3 183.2L181.2 183.2L175.6 174.8L173.5 177.4L173.5 183.2ZM190.9 183.5L190.9 183.5Q189.9 183.5 189.2 182.8Q188.5 182.1 188.5 181.1L188.5 181.1Q188.5 180.1 189.2 179.4Q189.9 178.7 190.9 178.7L190.9 178.7Q191.8 178.7 192.6 179.4Q193.3 180.1 193.3 181.1L193.3 181.1Q193.3 181.7 192.9 182.3Q192.6 182.8 192.1 183.1Q191.5 183.5 190.9 183.5ZM204.0 183.2L204.0 183.2L196.8 183.2L196.8 162.8L204.1 162.8Q207.2 162.8 209.4 164.1Q211.6 165.3 212.8 167.6Q214.0 169.8 214.0 173.0L214.0 173.0Q214.0 176.2 212.8 178.5Q211.6 180.8 209.4 182.0Q207.1 183.2 204.0 183.2ZM201.1 166.5L201.1 179.5L203.9 179.5Q205.8 179.5 207.1 178.8Q208.4 178.2 209.0 176.7Q209.7 175.3 209.7 173.0L209.7 173.0Q209.7 170.7 209.0 169.3Q208.4 167.9 207.1 167.2Q205.8 166.5 203.9 166.5L203.9 166.5L201.1 166.5ZM230.9 183.2L217.2 183.2L217.2 162.8L230.9 162.8L230.9 166.4L221.5 166.4L221.5 171.2L230.2 171.2L230.2 174.8L221.5 174.8L221.5 179.7L230.9 179.7L230.9 183.2ZM233.2 162.8L238.0 162.8L242.9 178.3L243.1 178.3L248.1 162.8L252.8 162.8L245.8 183.2L240.3 183.2L233.2 162.8Z "/><mask id="satori_om-id-0-1"><rect x="60" y="199" width="437" height="44" fill="#fff"/></mask><g opacity="0.8"></g><path fill="#fff" d="M62.3 232.7L62.3 206.5L69.1 206.5L76.3 224.1L76.6 224.1L83.8 206.5L90.7 206.5L90.7 232.7L85.3 232.7L85.3 215.7L85.1 215.7L78.3 232.6L74.6 232.6L67.9 215.6L67.6 215.6L67.6 232.7L62.3 232.7ZM100.7 233.1L100.7 233.1Q98.8 233.1 97.4 232.4Q95.9 231.8 95.0 230.5Q94.2 229.2 94.2 227.2L94.2 227.2Q94.2 225.6 94.8 224.5Q95.4 223.4 96.4 222.7Q97.5 222.0 98.8 221.7Q100.1 221.3 101.6 221.2L101.6 221.2Q103.3 221.0 104.3 220.8Q105.4 220.7 105.8 220.3Q106.3 220.0 106.3 219.4L106.3 219.4L106.3 219.3Q106.3 218.1 105.6 217.4Q104.8 216.8 103.4 216.8L103.4 216.8Q101.9 216.8 101.1 217.4Q100.2 218.1 99.9 219.0L99.9 219.0L94.9 218.6Q95.3 216.8 96.4 215.5Q97.5 214.2 99.3 213.5Q101.1 212.8 103.4 212.8L103.4 212.8Q105.1 212.8 106.6 213.2Q108.1 213.6 109.2 214.4Q110.4 215.2 111.1 216.4Q111.8 217.7 111.8 219.5L111.8 219.5L111.8 232.7L106.6 232.7L106.6 230.0L106.4 230.0Q106.0 230.9 105.2 231.6Q104.4 232.3 103.3 232.7Q102.2 233.1 100.7 233.1ZM102.3 229.3L102.3 229.3Q103.5 229.3 104.4 228.8Q105.3 228.3 105.8 227.5Q106.4 226.7 106.4 225.7L106.4 225.7L106.4 223.6Q106.1 223.8 105.7 223.9Q105.2 224.0 104.7 224.1Q104.1 224.2 103.6 224.3Q103.0 224.4 102.6 224.5L102.6 224.5Q101.6 224.6 100.9 224.9Q100.2 225.2 99.8 225.7Q99.4 226.3 99.4 227.0L99.4 227.0Q99.4 228.1 100.2 228.7Q101.0 229.3 102.3 229.3ZM121.4 232.7L116.0 232.7L116.0 213.1L121.4 213.1L121.4 232.7ZM118.7 210.5L118.7 210.5Q117.5 210.5 116.7 209.7Q115.8 208.9 115.8 207.8L115.8 207.8Q115.8 206.6 116.7 205.8Q117.5 205.0 118.7 205.0L118.7 205.0Q119.9 205.0 120.8 205.8Q121.7 206.6 121.7 207.8L121.7 207.8Q121.7 208.9 120.8 209.7Q119.9 210.5 118.7 210.5ZM134.3 222.9L130.7 227.0L130.7 220.5L131.5 220.5L137.8 213.1L144.1 213.1L135.6 222.9L134.3 222.9ZM131.2 232.7L125.8 232.7L125.8 206.5L131.2 206.5L131.2 232.7ZM144.4 232.7L138.1 232.7L132.3 224.1L135.9 220.3L144.4 232.7Z M172.9 232.7L155.2 232.7L155.2 206.5L172.8 206.5L172.8 211.1L160.7 211.1L160.7 217.3L171.9 217.3L171.9 221.9L160.7 221.9L160.7 228.1L172.9 228.1L172.9 232.7ZM182.6 232.7L177.1 232.7L177.1 213.1L182.3 213.1L182.3 216.5L182.5 216.5Q183.2 214.8 184.6 213.8Q186.0 212.8 188.0 212.8L188.0 212.8Q190.0 212.8 191.5 213.8Q192.9 214.8 193.4 216.5L193.4 216.5L193.6 216.5Q194.2 214.8 195.7 213.8Q197.3 212.8 199.5 212.8L199.5 212.8Q202.2 212.8 203.9 214.5Q205.7 216.3 205.7 219.5L205.7 219.5L205.7 232.7L200.2 232.7L200.2 220.6Q200.2 218.9 199.4 218.1Q198.5 217.3 197.2 217.3L197.2 217.3Q195.7 217.3 194.9 218.2Q194.0 219.2 194.0 220.7L194.0 220.7L194.0 232.7L188.8 232.7L188.8 220.4Q188.8 219.0 187.9 218.1Q187.1 217.3 185.8 217.3L185.8 217.3Q184.9 217.3 184.1 217.7Q183.4 218.2 183.0 219.0Q182.6 219.8 182.6 220.9L182.6 220.9L182.6 232.7ZM215.6 233.1L215.6 233.1Q213.7 233.1 212.2 232.4Q210.7 231.8 209.9 230.5Q209.0 229.2 209.0 227.2L209.0 227.2Q209.0 225.6 209.6 224.5Q210.2 223.4 211.3 222.7Q212.3 222.0 213.6 221.7Q215.0 221.3 216.4 221.2L216.4 221.2Q218.1 221.0 219.2 220.8Q220.2 220.7 220.7 220.3Q221.2 220.0 221.2 219.4L221.2 219.4L221.2 219.3Q221.2 218.1 220.4 217.4Q219.6 216.8 218.3 216.8L218.3 216.8Q216.8 216.8 215.9 217.4Q215.0 218.1 214.8 219.0L214.8 219.0L209.7 218.6Q210.1 216.8 211.2 215.5Q212.4 214.2 214.1 213.5Q215.9 212.8 218.3 212.8L218.3 212.8Q219.9 212.8 221.4 213.2Q222.9 213.6 224.1 214.4Q225.3 215.2 225.9 216.4Q226.6 217.7 226.6 219.5L226.6 219.5L226.6 232.7L221.5 232.7L221.5 230.0L221.3 230.0Q220.8 230.9 220.0 231.6Q219.2 232.3 218.1 232.7Q217.0 233.1 215.6 233.1ZM217.1 229.3L217.1 229.3Q218.3 229.3 219.2 228.8Q220.2 228.3 220.7 227.5Q221.2 226.7 221.2 225.7L221.2 225.7L221.2 223.6Q221.0 223.8 220.5 223.9Q220.1 224.0 219.5 224.1Q219.0 224.2 218.4 224.3Q217.9 224.4 217.4 224.5L217.4 224.5Q216.5 224.6 215.7 224.9Q215.0 225.2 214.6 225.7Q214.2 226.3 214.2 227.0L214.2 227.0Q214.2 228.1 215.1 228.7Q215.9 229.3 217.1 229.3ZM236.3 221.3L236.3 221.3L236.3 232.7L230.8 232.7L230.8 213.1L236.0 213.1L236.0 216.5L236.3 216.5Q236.9 214.8 238.5 213.8Q240.0 212.8 242.2 212.8L242.2 212.8Q244.2 212.8 245.7 213.7Q247.3 214.6 248.1 216.2Q248.9 217.9 248.9 220.2L248.9 220.2L248.9 232.7L243.5 232.7L243.5 221.2Q243.5 219.4 242.6 218.3Q241.6 217.3 240.0 217.3L240.0 217.3Q238.9 217.3 238.1 217.8Q237.2 218.3 236.8 219.2Q236.3 220.1 236.3 221.3ZM262.1 233.1L262.1 233.1Q259.1 233.1 257.0 231.8Q254.8 230.5 253.6 228.3Q252.4 226.0 252.4 223.0L252.4 223.0Q252.4 219.9 253.6 217.6Q254.8 215.3 257.0 214.1Q259.1 212.8 262.1 212.8L262.1 212.8Q265.1 212.8 267.2 214.1Q269.4 215.3 270.6 217.6Q271.8 219.9 271.8 223.0L271.8 223.0Q271.8 226.0 270.6 228.3Q269.4 230.5 267.2 231.8Q265.1 233.1 262.1 233.1ZM262.1 228.9L262.1 228.9Q263.5 228.9 264.4 228.1Q265.3 227.3 265.8 226.0Q266.2 224.6 266.2 222.9L266.2 222.9Q266.2 221.2 265.8 219.9Q265.3 218.5 264.4 217.7Q263.5 217.0 262.1 217.0L262.1 217.0Q260.8 217.0 259.8 217.7Q258.9 218.5 258.4 219.9Q258.0 221.2 258.0 222.9L258.0 222.9Q258.0 224.6 258.4 226.0Q258.9 227.3 259.8 228.1Q260.8 228.9 262.1 228.9ZM284.3 233.1L284.3 233.1Q281.2 233.1 279.1 231.8Q276.9 230.6 275.7 228.3Q274.5 226.1 274.5 223.0L274.5 223.0Q274.5 219.9 275.7 217.6Q276.9 215.4 279.0 214.1Q281.2 212.8 284.1 212.8L284.1 212.8Q286.0 212.8 287.7 213.4Q289.4 214.0 290.6 215.3Q291.9 216.5 292.6 218.4Q293.3 220.3 293.3 222.8L293.3 222.8L293.3 224.3L276.7 224.3L276.7 220.9L288.2 220.9Q288.2 219.7 287.6 218.8Q287.1 217.9 286.2 217.4Q285.3 216.9 284.1 216.9L284.1 216.9Q282.9 216.9 282.0 217.4Q281.0 218.0 280.5 219.0Q279.9 219.9 279.9 221.1L279.9 221.1L279.9 224.3Q279.9 225.7 280.5 226.8Q281.0 227.9 282.0 228.4Q283.0 229.0 284.4 229.0L284.4 229.0Q285.3 229.0 286.0 228.8Q286.8 228.5 287.3 228.0Q287.9 227.5 288.1 226.7L288.1 226.7L293.2 227.1Q292.8 228.9 291.6 230.2Q290.4 231.6 288.6 232.3Q286.7 233.1 284.3 233.1ZM296.8 206.5L302.3 206.5L302.3 232.7L296.8 232.7L296.8 206.5Z M316.9 198.1L322.1 198.1L322.1 241.1L316.9 241.1L316.9 198.1Z M342.4 232.7L336.9 232.7L336.9 206.5L347.2 206.5Q350.2 206.5 352.3 207.6Q354.4 208.8 355.5 210.8Q356.6 212.8 356.6 215.4L356.6 215.4Q356.6 218.0 355.5 220.0Q354.3 222.0 352.2 223.1Q350.1 224.2 347.1 224.2L347.1 224.2L340.5 224.2L340.5 219.8L346.2 219.8Q347.8 219.8 348.8 219.2Q349.9 218.7 350.4 217.7Q350.9 216.7 350.9 215.4L350.9 215.4Q350.9 214.1 350.4 213.1Q349.9 212.1 348.8 211.6Q347.8 211.0 346.1 211.0L346.1 211.0L342.4 211.0L342.4 232.7ZM368.6 233.1L368.6 233.1Q365.7 233.1 363.5 231.8Q361.3 230.5 360.1 228.3Q359.0 226.0 359.0 223.0L359.0 223.0Q359.0 219.9 360.1 217.6Q361.3 215.3 363.5 214.1Q365.7 212.8 368.6 212.8L368.6 212.8Q371.6 212.8 373.8 214.1Q375.9 215.3 377.1 217.6Q378.3 219.9 378.3 223.0L378.3 223.0Q378.3 226.0 377.1 228.3Q375.9 230.5 373.8 231.8Q371.6 233.1 368.6 233.1ZM368.7 228.9L368.7 228.9Q370.0 228.9 370.9 228.1Q371.8 227.3 372.3 226.0Q372.8 224.6 372.8 222.9L372.8 222.9Q372.8 221.2 372.3 219.9Q371.8 218.5 370.9 217.7Q370.0 217.0 368.7 217.0L368.7 217.0Q367.3 217.0 366.4 217.7Q365.4 218.5 365.0 219.9Q364.5 221.2 364.5 222.9L364.5 222.9Q364.5 224.6 365.0 226.0Q365.4 227.3 366.4 228.1Q367.3 228.9 368.7 228.9ZM387.3 232.7L381.9 232.7L381.9 213.1L387.1 213.1L387.1 216.5L387.3 216.5Q387.9 214.7 389.1 213.7Q390.4 212.8 392.1 212.8L392.1 212.8Q392.5 212.8 392.9 212.8Q393.4 212.9 393.8 213.0L393.8 213.0L393.8 217.8Q393.4 217.7 392.7 217.6Q392.0 217.5 391.5 217.5L391.5 217.5Q390.3 217.5 389.3 218.0Q388.4 218.5 387.8 219.5Q387.3 220.4 387.3 221.6L387.3 221.6L387.3 232.7ZM396.2 213.1L408.0 213.1L408.0 217.2L396.2 217.2L396.2 213.1ZM398.9 227.4L398.9 208.4L404.3 208.4L404.3 226.7Q404.3 227.4 404.5 227.8Q404.8 228.2 405.2 228.4Q405.6 228.6 406.1 228.6L406.1 228.6Q406.5 228.6 406.9 228.5Q407.3 228.4 407.5 228.4L407.5 228.4L408.4 232.5Q407.9 232.6 407.2 232.8Q406.5 232.9 405.4 233.0L405.4 233.0Q403.4 233.0 402.0 232.4Q400.5 231.8 399.7 230.6Q398.8 229.3 398.9 227.4L398.9 227.4ZM417.0 232.7L411.5 232.7L411.5 213.1L417.0 213.1L417.0 232.7ZM414.3 210.5L414.3 210.5Q413.1 210.5 412.2 209.7Q411.3 208.9 411.3 207.8L411.3 207.8Q411.3 206.6 412.2 205.8Q413.1 205.0 414.3 205.0L414.3 205.0Q415.5 205.0 416.4 205.8Q417.2 206.6 417.2 207.8L417.2 207.8Q417.2 208.9 416.4 209.7Q415.5 210.5 414.3 210.5ZM419.8 213.1L431.9 213.1L431.9 217.2L419.8 217.2L419.8 213.1ZM428.0 232.7L422.5 232.7L422.5 211.6Q422.5 209.5 423.4 208.1Q424.2 206.7 425.7 206.0Q427.1 205.3 429.0 205.3L429.0 205.3Q430.2 205.3 431.3 205.5Q432.3 205.7 432.8 205.8L432.8 205.8L431.9 209.9Q431.5 209.8 431.1 209.7Q430.6 209.6 430.1 209.6L430.1 209.6Q428.9 209.6 428.5 210.2Q428.0 210.7 428.0 211.7L428.0 211.7L428.0 232.7ZM443.4 233.1L443.4 233.1Q440.4 233.1 438.2 231.8Q436.1 230.5 434.9 228.3Q433.7 226.0 433.7 223.0L433.7 223.0Q433.7 219.9 434.9 217.6Q436.1 215.3 438.2 214.1Q440.4 212.8 443.4 212.8L443.4 212.8Q446.4 212.8 448.5 214.1Q450.7 215.3 451.9 217.6Q453.1 219.9 453.1 223.0L453.1 223.0Q453.1 226.0 451.9 228.3Q450.7 230.5 448.5 231.8Q446.4 233.1 443.4 233.1ZM443.4 228.9L443.4 228.9Q444.8 228.9 445.7 228.1Q446.6 227.3 447.1 226.0Q447.5 224.6 447.5 222.9L447.5 222.9Q447.5 221.2 447.1 219.9Q446.6 218.5 445.7 217.7Q444.8 217.0 443.4 217.0L443.4 217.0Q442.1 217.0 441.1 217.7Q440.2 218.5 439.7 219.9Q439.3 221.2 439.3 222.9L439.3 222.9Q439.3 224.6 439.7 226.0Q440.2 227.3 441.1 228.1Q442.1 228.9 443.4 228.9ZM445.3 210.5L441.4 210.5L444.1 204.7L449.2 204.7L445.3 210.5ZM456.6 206.5L462.1 206.5L462.1 232.7L456.6 232.7L456.6 206.5ZM471.9 232.7L466.4 232.7L466.4 213.1L471.9 213.1L471.9 232.7ZM469.1 210.5L469.1 210.5Q467.9 210.5 467.1 209.7Q466.2 208.9 466.2 207.8L466.2 207.8Q466.2 206.6 467.1 205.8Q467.9 205.0 469.1 205.0L469.1 205.0Q470.4 205.0 471.2 205.8Q472.1 206.6 472.1 207.8L472.1 207.8Q472.1 208.9 471.2 209.7Q470.4 210.5 469.1 210.5ZM485.1 233.1L485.1 233.1Q482.1 233.1 479.9 231.8Q477.8 230.5 476.6 228.3Q475.4 226.0 475.4 223.0L475.4 223.0Q475.4 219.9 476.6 217.6Q477.8 215.3 479.9 214.1Q482.1 212.8 485.1 212.8L485.1 212.8Q488.0 212.8 490.2 214.1Q492.4 215.3 493.6 217.6Q494.7 219.9 494.7 223.0L494.7 223.0Q494.7 226.0 493.6 228.3Q492.4 230.5 490.2 231.8Q488.0 233.1 485.1 233.1ZM485.1 228.9L485.1 228.9Q486.5 228.9 487.4 228.1Q488.3 227.3 488.7 226.0Q489.2 224.6 489.2 222.9L489.2 222.9Q489.2 221.2 488.7 219.9Q488.3 218.5 487.4 217.7Q486.5 217.0 485.1 217.0L485.1 217.0Q483.7 217.0 482.8 217.7Q481.9 218.5 481.4 219.9Q480.9 221.2 480.9 222.9L480.9 222.9Q480.9 224.6 481.4 226.0Q481.9 227.3 482.8 228.1Q483.7 228.9 485.1 228.9Z " opacity="0.8"/></svg>